REM DIRINDEX 1\2,1\4,1\5,1\6,1\7,1\3\8,1\3\9,1\3\10
REM DIRNAME folder01,folder02,folder03,folder04,folder05,folder06,folder07,folder08,folder09,folder10
TITLE ""
FILE "DB4500_5th_6C_41.mp3" MP3
  TRACK 01 AUDIO
    TITLE "0:"
    INDEX 01 00:00:00
  TRACK 02 AUDIO
    TITLE "8:cjc113_4937"
    INDEX 01 00:00:01
  TRACK 03 AUDIO
    TITLE "0:"
    INDEX 01 00:01:15
  TRACK 04 AUDIO
    TITLE "9:cjc113_4938"
    INDEX 01 00:01:32
  TRACK 05 AUDIO
    TITLE "0:"
    INDEX 01 00:02:63
  TRACK 06 AUDIO
    TITLE "10:cjc113_4939"
    INDEX 01 00:03:06
  TRACK 07 AUDIO
    TITLE "0:"
    INDEX 01 00:05:73
  TRACK 08 AUDIO
    TITLE "8:cjc113_4940"
    INDEX 01 00:06:37
  TRACK 09 AUDIO
    TITLE "0:"
    INDEX 01 00:07:35
  TRACK 10 AUDIO
    TITLE "9:cjc113_4941"
    INDEX 01 00:07:52
  TRACK 11 AUDIO
    TITLE "0:"
    INDEX 01 00:09:63
  TRACK 12 AUDIO
    TITLE "10:cjc113_4942"
    INDEX 01 00:10:00
  TRACK 13 AUDIO
    TITLE "0:"
    INDEX 01 00:13:69
  TRACK 14 AUDIO
    TITLE "8:cjc113_4943"
    INDEX 01 00:14:37
  TRACK 15 AUDIO
    TITLE "0:"
    INDEX 01 00:15:42
  TRACK 16 AUDIO
    TITLE "9:cjc113_4944"
    INDEX 01 00:15:56
  TRACK 17 AUDIO
    TITLE "0:"
    INDEX 01 00:17:06
  TRACK 18 AUDIO
    TITLE "10:cjc113_4945"
    INDEX 01 00:17:21
  TRACK 19 AUDIO
    TITLE "0:"
    INDEX 01 00:20:26
  TRACK 20 AUDIO
    TITLE "8:cjc113_4946"
    INDEX 01 00:20:69
  TRACK 21 AUDIO
    TITLE "0:"
    INDEX 01 00:22:01
  TRACK 22 AUDIO
    TITLE "9:cjc113_4947"
    INDEX 01 00:22:17
  TRACK 23 AUDIO
    TITLE "0:"
    INDEX 01 00:24:25
  TRACK 24 AUDIO
    TITLE "10:cjc113_4948"
    INDEX 01 00:24:43
  TRACK 25 AUDIO
    TITLE "0:"
    INDEX 01 00:26:71
  TRACK 26 AUDIO
    TITLE "8:cjc113_4949"
    INDEX 01 00:27:38
  TRACK 27 AUDIO
    TITLE "0:"
    INDEX 01 00:28:47
  TRACK 28 AUDIO
    TITLE "9:cjc113_4950"
    INDEX 01 00:28:66
  TRACK 29 AUDIO
    TITLE "0:"
    INDEX 01 00:30:16
  TRACK 30 AUDIO
    TITLE "10:cjc113_4951"
    INDEX 01 00:30:36
  TRACK 31 AUDIO
    TITLE "0:"
    INDEX 01 00:34:49
  TRACK 32 AUDIO
    TITLE "8:cjc113_4952"
    INDEX 01 00:35:08
  TRACK 33 AUDIO
    TITLE "0:"
    INDEX 01 00:36:15
  TRACK 34 AUDIO
    TITLE "9:cjc113_4953"
    INDEX 01 00:36:29
  TRACK 35 AUDIO
    TITLE "0:"
    INDEX 01 00:37:44
  TRACK 36 AUDIO
    TITLE "10:cjc113_4954"
    INDEX 01 00:37:54
  TRACK 37 AUDIO
    TITLE "0:"
    INDEX 01 00:41:16
  TRACK 38 AUDIO
    TITLE "8:cjc113_4955"
    INDEX 01 00:41:45
  TRACK 39 AUDIO
    TITLE "0:"
    INDEX 01 00:42:59
  TRACK 40 AUDIO
    TITLE "9:cjc113_4956"
    INDEX 01 00:42:68
  TRACK 41 AUDIO
    TITLE "0:"
    INDEX 01 00:44:14
  TRACK 42 AUDIO
    TITLE "10:cjc113_4957"
    INDEX 01 00:44:16
  TRACK 43 AUDIO
    TITLE "0:"
    INDEX 01 00:47:44
  TRACK 44 AUDIO
    TITLE "8:cjc113_4958"
    INDEX 01 00:47:74
  TRACK 45 AUDIO
    TITLE "0:"
    INDEX 01 00:49:14
  TRACK 46 AUDIO
    TITLE "9:cjc113_4959"
    INDEX 01 00:49:23
  TRACK 47 AUDIO
    TITLE "0:"
    INDEX 01 00:50:50
  TRACK 48 AUDIO
    TITLE "10:cjc113_4960"
    INDEX 01 00:50:58
  TRACK 49 AUDIO
    TITLE "0:"
    INDEX 01 00:54:05
  TRACK 50 AUDIO
    TITLE "8:cjc113_4961"
    INDEX 01 00:54:50
  TRACK 51 AUDIO
    TITLE "0:"
    INDEX 01 00:55:61
  TRACK 52 AUDIO
    TITLE "9:cjc113_4962"
    INDEX 01 00:55:69
  TRACK 53 AUDIO
    TITLE "0:"
    INDEX 01 00:57:15
  TRACK 54 AUDIO
    TITLE "10:cjc113_4963"
    INDEX 01 00:57:25
  TRACK 55 AUDIO
    TITLE "0:"
    INDEX 01 01:00:06
  TRACK 56 AUDIO
    TITLE "8:cjc113_4964"
    INDEX 01 01:00:37
  TRACK 57 AUDIO
    TITLE "0:"
    INDEX 01 01:01:54
  TRACK 58 AUDIO
    TITLE "9:cjc113_4965"
    INDEX 01 01:01:64
  TRACK 59 AUDIO
    TITLE "0:"
    INDEX 01 01:03:27
  TRACK 60 AUDIO
    TITLE "10:cjc113_4966"
    INDEX 01 01:03:35
  TRACK 61 AUDIO
    TITLE "0:"
    INDEX 01 01:06:59
  TRACK 62 AUDIO
    TITLE "8:cjc113_4967"
    INDEX 01 01:07:15
  TRACK 63 AUDIO
    TITLE "0:"
    INDEX 01 01:08:27
  TRACK 64 AUDIO
    TITLE "9:cjc113_4968"
    INDEX 01 01:08:36
  TRACK 65 AUDIO
    TITLE "0:"
    INDEX 01 01:10:69
  TRACK 66 AUDIO
    TITLE "10:cjc113_4969"
    INDEX 01 01:11:03
  TRACK 67 AUDIO
    TITLE "0:"
    INDEX 01 01:15:15
  TRACK 68 AUDIO
    TITLE "8:cjc113_4970"
    INDEX 01 01:15:46
  TRACK 69 AUDIO
    TITLE "0:"
    INDEX 01 01:16:69
  TRACK 70 AUDIO
    TITLE "9:cjc113_4971"
    INDEX 01 01:17:00
  TRACK 71 AUDIO
    TITLE "0:"
    INDEX 01 01:18:09
  TRACK 72 AUDIO
    TITLE "10:cjc113_4972"
    INDEX 01 01:18:15
  TRACK 73 AUDIO
    TITLE "0:"
    INDEX 01 01:22:05
  TRACK 74 AUDIO
    TITLE "8:cjc113_4973"
    INDEX 01 01:22:35
  TRACK 75 AUDIO
    TITLE "0:"
    INDEX 01 01:23:60
  TRACK 76 AUDIO
    TITLE "9:cjc113_4974"
    INDEX 01 01:23:69
  TRACK 77 AUDIO
    TITLE "0:"
    INDEX 01 01:25:06
  TRACK 78 AUDIO
    TITLE "10:cjc113_4975"
    INDEX 01 01:25:08
  TRACK 79 AUDIO
    TITLE "0:"
    INDEX 01 01:28:25
